<?xml version="1.0" encoding="UTF-8" standalone="no"?>
<!-- Created by Symbolator http://kevinpt.github.io/symbolator -->
<svg xmlns="http://www.w3.org/2000/svg"
xmlns:xlink="http://www.w3.org/1999/xlink"
xml:space="preserve"
width="846" height="319" viewBox="-323 -39 846.0 319.5" version="1.1">
<style type="text/css">
<![CDATA[
.fnt1 {fill:#000000;
    font-family:Helvetica; font-size:12pt; font-weight:normal; font-style:normal;}
.fnt2 {fill:#000000;
    font-family:Helvetica; font-size:14pt; font-weight:bold; font-style:normal;}
.label {fill:#000;
  text-anchor:middle;
  font-size:16pt; font-weight:bold; font-family:Sans;}
.link {fill: #0D47A1;}
.link:hover {fill: #0D47A1; text-decoration:underline;}
.link:visited {fill: #4A148C;}
]]>
</style>
<defs>
<marker id="arrow_back" markerWidth="8.0" markerHeight="8.0" viewBox="0 0 8.0 8.0" refX="4.8" refY="4.0" orient="auto" markerUnits="userSpaceOnUse">
<g transform="translate(8.0,4.0)"><path d="M 0 -4 C -2 -1, -2 1, 0 4 L -8 0 z" stroke="none" fill="#000000"/>
</g>
</marker>
<marker id="bubble" markerWidth="7.0" markerHeight="7.0" viewBox="0 0 7.0 7.0" refX="3.5" refY="3.5" orient="auto" markerUnits="userSpaceOnUse">
<g transform="translate(3.5,3.5)"><ellipse cx="0.0" cy="0.0" rx="3.0" ry="3.0" stroke="#000000" fill="#FFFFFF" stroke-width="1"/>
</g>
</marker>
<marker id="clock" markerWidth="8.0" markerHeight="15.0" viewBox="0 0 8.0 15.0" refX="0.5" refY="7.5" orient="auto" markerUnits="userSpaceOnUse">
<g transform="translate(0.5,7.5)"><path d="M 0 -7 L 0 7 L 7 0 z" stroke="#000000" fill="#FFFFFF" stroke-width="1"/>
</g>
</marker>
<marker id="arrow_fwd" markerWidth="8.0" markerHeight="8.0" viewBox="0 0 8.0 8.0" refX="3.2" refY="4.0" orient="auto" markerUnits="userSpaceOnUse">
<g transform="translate(-0.0,4.0)"><path d="M 0 -4 C 2 -1, 2 1, 0 4 L 8 0 z" stroke="none" fill="#000000"/>
</g>
</marker>
</defs>
<rect x="-323" y="-39" width="100%" height="100%" fill="white"/><g transform="translate(0,0)">
<rect x="0" y="-15.0" width="200.0" height="290.0" stroke="#000000" fill="#C5DBFC" stroke-width="1"/>
<g transform="translate(0,0)">
<line x1="-20" y1="0" x2="0" y2="0" stroke="#000000" fill="none" stroke-width="1" marker-end="url(#clock)"/>
<text class="fnt1" x="10" y="0" text-anchor="normal" dy="3.6000000000000014">I_clk</text>
</g>
<g transform="translate(0,20)">
<line x1="-20" y1="0" x2="-3.5" y2="0.0" stroke="#000000" fill="none" stroke-width="1" marker-end="url(#bubble)"/>
<text class="fnt1" x="10" y="0" text-anchor="normal" dy="3.6000000000000014">I_rst_n</text>
</g>
<g transform="translate(0,40)">
<line x1="-20" y1="0" x2="0" y2="0" stroke="#000000" fill="none" stroke-width="1"/>
<text class="fnt1" x="10" y="0" text-anchor="normal" dy="3.6000000000000014">VSYNC</text>
</g>
<g transform="translate(0,60)">
<line x1="-20" y1="0" x2="0" y2="0" stroke="#000000" fill="none" stroke-width="1"/>
<text class="fnt1" x="10" y="0" text-anchor="normal" dy="3.6000000000000014">HREF</text>
</g>
<g transform="translate(0,80)">
<line x1="-20" y1="0" x2="0" y2="0" stroke="#000000" fill="none" stroke-width="3"/>
<text class="fnt1" x="10" y="0" text-anchor="normal" dy="3.6000000000000014">PIXDATA</text>
<text class="fnt1" x="-30" y="0" text-anchor="end" dy="3.6000000000000014" style="fill:#969696"> <tspan fill="#039BE5">[9:0]</tspan></text>
</g>
<g transform="translate(0,100)">
<line x1="-20" y1="0" x2="0" y2="0" stroke="#000000" fill="none" stroke-width="1" marker-end="url(#clock)"/>
<text class="fnt1" x="10" y="0" text-anchor="normal" dy="3.6000000000000014">PIXCLK</text>
</g>
<g transform="translate(0,120)">
<line x1="-20" y1="0" x2="0" y2="0" stroke="#000000" fill="none" stroke-width="1"/>
<text class="fnt1" x="10" y="0" text-anchor="normal" dy="3.6000000000000014">key</text>
</g>
<g transform="translate(200.0,0)">
<line x1="20" y1="0" x2="0" y2="0" stroke="#000000" fill="none" stroke-width="3"/>
<text class="fnt1" x="-10" y="0" text-anchor="end" dy="3.6000000000000014">O_led</text>
<text class="fnt1" x="30" y="0" text-anchor="normal" dy="3.6000000000000014" style="fill:#969696"> <tspan fill="#039BE5">[1:0]</tspan></text>
</g>
<g transform="translate(200.0,20)">
<line x1="16.16" y1="4.702643708725836e-16" x2="3.84" y2="-4.702643708725836e-16" stroke="#000000" fill="none" stroke-width="1" marker-start="url(#arrow_back)" marker-end="url(#arrow_fwd)"/>
<text class="fnt1" x="-10" y="0" text-anchor="end" dy="3.6000000000000014">SDA</text>
</g>
<g transform="translate(200.0,40)">
<line x1="16.16" y1="4.702643708725836e-16" x2="3.84" y2="-4.702643708725836e-16" stroke="#000000" fill="none" stroke-width="1" marker-start="url(#arrow_back)" marker-end="url(#arrow_fwd)"/>
<text class="fnt1" x="-10" y="0" text-anchor="end" dy="3.6000000000000014">SCL</text>
</g>
<g transform="translate(200.0,60)">
<line x1="20" y1="0" x2="0" y2="0" stroke="#000000" fill="none" stroke-width="1"/>
<text class="fnt1" x="-10" y="0" text-anchor="end" dy="3.6000000000000014">XCLK</text>
</g>
<g transform="translate(200.0,80)">
<line x1="20" y1="0" x2="0" y2="0" stroke="#000000" fill="none" stroke-width="3"/>
<text class="fnt1" x="-10" y="0" text-anchor="end" dy="3.6000000000000014">O_hpram_ck</text>
<text class="fnt1" x="30" y="0" text-anchor="normal" dy="3.6000000000000014" style="fill:#969696"> <tspan fill="#039BE5">[0:0]</tspan></text>
</g>
<g transform="translate(200.0,100)">
<line x1="20" y1="0" x2="3.5" y2="-4.286263797015736e-16" stroke="#000000" fill="none" stroke-width="3" marker-end="url(#bubble)"/>
<text class="fnt1" x="-10" y="0" text-anchor="end" dy="3.6000000000000014">O_hpram_ck_n</text>
<text class="fnt1" x="30" y="0" text-anchor="normal" dy="3.6000000000000014" style="fill:#969696"> <tspan fill="#039BE5">[0:0]</tspan></text>
</g>
<g transform="translate(200.0,120)">
<line x1="20" y1="0" x2="3.5" y2="-4.286263797015736e-16" stroke="#000000" fill="none" stroke-width="3" marker-end="url(#bubble)"/>
<text class="fnt1" x="-10" y="0" text-anchor="end" dy="3.6000000000000014">O_hpram_cs_n</text>
<text class="fnt1" x="30" y="0" text-anchor="normal" dy="3.6000000000000014" style="fill:#969696"> <tspan fill="#039BE5">[0:0]</tspan></text>
</g>
<g transform="translate(200.0,140)">
<line x1="20" y1="0" x2="3.5" y2="-4.286263797015736e-16" stroke="#000000" fill="none" stroke-width="3" marker-end="url(#bubble)"/>
<text class="fnt1" x="-10" y="0" text-anchor="end" dy="3.6000000000000014">O_hpram_reset_n</text>
<text class="fnt1" x="30" y="0" text-anchor="normal" dy="3.6000000000000014" style="fill:#969696"> <tspan fill="#039BE5">[0:0]</tspan></text>
</g>
<g transform="translate(200.0,160)">
<line x1="16.16" y1="4.702643708725836e-16" x2="3.84" y2="-4.702643708725836e-16" stroke="#000000" fill="none" stroke-width="3" marker-start="url(#arrow_back)" marker-end="url(#arrow_fwd)"/>
<text class="fnt1" x="-10" y="0" text-anchor="end" dy="3.6000000000000014">IO_hpram_dq</text>
<text class="fnt1" x="30" y="0" text-anchor="normal" dy="3.6000000000000014" style="fill:#969696"> <tspan fill="#039BE5">[7:0]</tspan></text>
</g>
<g transform="translate(200.0,180)">
<line x1="16.16" y1="4.702643708725836e-16" x2="3.84" y2="-4.702643708725836e-16" stroke="#000000" fill="none" stroke-width="3" marker-start="url(#arrow_back)" marker-end="url(#arrow_fwd)"/>
<text class="fnt1" x="-10" y="0" text-anchor="end" dy="3.6000000000000014">IO_hpram_rwds</text>
<text class="fnt1" x="30" y="0" text-anchor="normal" dy="3.6000000000000014" style="fill:#969696"> <tspan fill="#039BE5">[0:0]</tspan></text>
</g>
<g transform="translate(200.0,200)">
<line x1="20" y1="0" x2="0" y2="0" stroke="#000000" fill="none" stroke-width="1"/>
<text class="fnt1" x="-10" y="0" text-anchor="end" dy="3.6000000000000014">O_tmds_clk_p</text>
</g>
<g transform="translate(200.0,220)">
<line x1="20" y1="0" x2="3.5" y2="-4.286263797015736e-16" stroke="#000000" fill="none" stroke-width="1" marker-end="url(#bubble)"/>
<text class="fnt1" x="-10" y="0" text-anchor="end" dy="3.6000000000000014">O_tmds_clk_n</text>
</g>
<g transform="translate(200.0,240)">
<line x1="20" y1="0" x2="0" y2="0" stroke="#000000" fill="none" stroke-width="3"/>
<text class="fnt1" x="-10" y="0" text-anchor="end" dy="3.6000000000000014">O_tmds_data_p</text>
<text class="fnt1" x="30" y="0" text-anchor="normal" dy="3.6000000000000014" style="fill:#969696"> <tspan fill="#039BE5">[2:0]</tspan></text>
</g>
<g transform="translate(200.0,260)">
<line x1="20" y1="0" x2="3.5" y2="-4.286263797015736e-16" stroke="#000000" fill="none" stroke-width="3" marker-end="url(#bubble)"/>
<text class="fnt1" x="-10" y="0" text-anchor="end" dy="3.6000000000000014">O_tmds_data_n</text>
<text class="fnt1" x="30" y="0" text-anchor="normal" dy="3.6000000000000014" style="fill:#969696"> <tspan fill="#039BE5">[2:0]</tspan></text>
</g>
</g>
<rect x="1.0" y="-14.0" width="198.0" height="288.0" stroke="#000000" fill="none" stroke-width="3"/>
<text class="fnt2" x="100.0" y="-24.0" text-anchor="middle" dy="1.200000000000001">video_top</text>
</svg>