<svg xmlns="http://www.w3.org/2000/svg" xmlns:xlink="http://www.w3.org/1999/xlink" xmlns:s="https://github.com/nturley/netlistsvg" width="2029" height="514"><style>svg {
  stroke:#000;
  fill:none;
}
text {
  fill:#000;
  stroke:none;
  font-size:10px;
  font-weight: bold;
  font-family: "Courier New", monospace;
}
line {
    stroke-linecap: round;
}
.nodelabel {
  text-anchor: middle;
}
.inputPortLabel {
  text-anchor: end;
}
.splitjoinBody {
  fill:#000;
}</style><g s:type="add" transform="translate(1735.3333333333333,16)" s:width="25" s:height="25" id="cell_$add$d:/tangnano4k/SOBEL_TANGNANO4K/verilog/sobel/rgb_to_gray.v:35$1"><s:alias val="$add"/><circle r="12.5" cx="12.5" cy="12.5" fill="#ffc9c3" class="cell_$add$d:/tangnano4k/SOBEL_TANGNANO4K/verilog/sobel/rgb_to_gray.v:35$1"/><line x1="7.5" x2="17.5" y1="12.5" y2="12.5" class="cell_$add$d:/tangnano4k/SOBEL_TANGNANO4K/verilog/sobel/rgb_to_gray.v:35$1"/><line x1="12.5" x2="12.5" y1="7.5" y2="17.5" class="cell_$add$d:/tangnano4k/SOBEL_TANGNANO4K/verilog/sobel/rgb_to_gray.v:35$1"/><g s:x="2" s:y="5" s:pid="A"/><g s:x="2" s:y="20" s:pid="B"/><g s:x="26" s:y="12.5" s:pid="Y"/></g><g s:type="add" transform="translate(1958,64)" s:width="25" s:height="25" id="cell_$add$d:/tangnano4k/SOBEL_TANGNANO4K/verilog/sobel/rgb_to_gray.v:35$2"><s:alias val="$add"/><circle r="12.5" cx="12.5" cy="12.5" fill="#ffc9c3" class="cell_$add$d:/tangnano4k/SOBEL_TANGNANO4K/verilog/sobel/rgb_to_gray.v:35$2"/><line x1="7.5" x2="17.5" y1="12.5" y2="12.5" class="cell_$add$d:/tangnano4k/SOBEL_TANGNANO4K/verilog/sobel/rgb_to_gray.v:35$2"/><line x1="12.5" x2="12.5" y1="7.5" y2="17.5" class="cell_$add$d:/tangnano4k/SOBEL_TANGNANO4K/verilog/sobel/rgb_to_gray.v:35$2"/><g s:x="2" s:y="5" s:pid="A"/><g s:x="2" s:y="20" s:pid="B"/><g s:x="26" s:y="12.5" s:pid="Y"/></g><g s:type="add" transform="translate(1369.6666666666667,155.5)" s:width="25" s:height="25" id="cell_$add$d:/tangnano4k/SOBEL_TANGNANO4K/verilog/sobel/rgb_to_gray.v:44$6"><s:alias val="$add"/><circle r="12.5" cx="12.5" cy="12.5" fill="#ffc9c3" class="cell_$add$d:/tangnano4k/SOBEL_TANGNANO4K/verilog/sobel/rgb_to_gray.v:44$6"/><line x1="7.5" x2="17.5" y1="12.5" y2="12.5" class="cell_$add$d:/tangnano4k/SOBEL_TANGNANO4K/verilog/sobel/rgb_to_gray.v:44$6"/><line x1="12.5" x2="12.5" y1="7.5" y2="17.5" class="cell_$add$d:/tangnano4k/SOBEL_TANGNANO4K/verilog/sobel/rgb_to_gray.v:44$6"/><g s:x="2" s:y="5" s:pid="A"/><g s:x="2" s:y="20" s:pid="B"/><g s:x="26" s:y="12.5" s:pid="Y"/></g><g s:type="add" transform="translate(1473,387.5)" s:width="25" s:height="25" id="cell_$add$d:/tangnano4k/SOBEL_TANGNANO4K/verilog/sobel/rgb_to_gray.v:44$7"><s:alias val="$add"/><circle r="12.5" cx="12.5" cy="12.5" fill="#ffc9c3" class="cell_$add$d:/tangnano4k/SOBEL_TANGNANO4K/verilog/sobel/rgb_to_gray.v:44$7"/><line x1="7.5" x2="17.5" y1="12.5" y2="12.5" class="cell_$add$d:/tangnano4k/SOBEL_TANGNANO4K/verilog/sobel/rgb_to_gray.v:44$7"/><line x1="12.5" x2="12.5" y1="7.5" y2="17.5" class="cell_$add$d:/tangnano4k/SOBEL_TANGNANO4K/verilog/sobel/rgb_to_gray.v:44$7"/><g s:x="2" s:y="5" s:pid="A"/><g s:x="2" s:y="20" s:pid="B"/><g s:x="26" s:y="12.5" s:pid="Y"/></g><g s:type="not" transform="translate(1958,198.5)" s:width="30" s:height="20" id="cell_$auto$proc_dff.cc:220:proc_dff$10"><s:alias val="$_NOT_"/><s:alias val="$not"/><s:alias val="$logic_not"/><path d="M0,0 L0,20 L20,10 Z" fill="#eebaff" class="cell_$auto$proc_dff.cc:220:proc_dff$10"/><circle cx="24" cy="10" r="3" fill="#eebaff" class="cell_$auto$proc_dff.cc:220:proc_dff$10"/><g s:x="-1" s:y="10" s:pid="A"/><g s:x="27" s:y="10" s:pid="Y"/></g><g s:type="not" transform="translate(1958,143.5)" s:width="30" s:height="20" id="cell_$auto$proc_dff.cc:220:proc_dff$15"><s:alias val="$_NOT_"/><s:alias val="$not"/><s:alias val="$logic_not"/><path d="M0,0 L0,20 L20,10 Z" fill="#eebaff" class="cell_$auto$proc_dff.cc:220:proc_dff$15"/><circle cx="24" cy="10" r="3" fill="#eebaff" class="cell_$auto$proc_dff.cc:220:proc_dff$15"/><g s:x="-1" s:y="10" s:pid="A"/><g s:x="27" s:y="10" s:pid="Y"/></g><g s:type="not" transform="translate(1958,318.5)" s:width="30" s:height="20" id="cell_$logic_not$d:/tangnano4k/SOBEL_TANGNANO4K/verilog/sobel/rgb_to_gray.v:54$9"><s:alias val="$_NOT_"/><s:alias val="$not"/><s:alias val="$logic_not"/><path d="M0,0 L0,20 L20,10 Z" fill="#eebaff" class="cell_$logic_not$d:/tangnano4k/SOBEL_TANGNANO4K/verilog/sobel/rgb_to_gray.v:54$9"/><circle cx="24" cy="10" r="3" fill="#eebaff" class="cell_$logic_not$d:/tangnano4k/SOBEL_TANGNANO4K/verilog/sobel/rgb_to_gray.v:54$9"/><g s:x="-1" s:y="10" s:pid="A"/><g s:x="27" s:y="10" s:pid="Y"/></g><g s:type="generic" transform="translate(395,95)" s:width="30" s:height="40" id="cell_$mul$d:/tangnano4k/SOBEL_TANGNANO4K/verilog/sobel/rgb_to_gray.v:41$3"><text x="15" y="-4" class="nodelabel cell_$mul$d:/tangnano4k/SOBEL_TANGNANO4K/verilog/sobel/rgb_to_gray.v:41$3" s:attribute="ref">$mul</text><rect width="30" height="40" s:generic="body" fill="#ffae46" rx="0" class="cell_$mul$d:/tangnano4k/SOBEL_TANGNANO4K/verilog/sobel/rgb_to_gray.v:41$3"/><g transform="translate(0,10)" s:x="0" s:y="10" s:pid="in0" id="port_$mul$d:/tangnano4k/SOBEL_TANGNANO4K/verilog/sobel/rgb_to_gray.v:41$3~A"><text x="-3" y="-4" class="inputPortLabel cell_$mul$d:/tangnano4k/SOBEL_TANGNANO4K/verilog/sobel/rgb_to_gray.v:41$3">A</text></g><g transform="translate(0,30)" s:x="0" s:y="10" s:pid="in0" id="port_$mul$d:/tangnano4k/SOBEL_TANGNANO4K/verilog/sobel/rgb_to_gray.v:41$3~B"><text x="-3" y="-4" class="inputPortLabel cell_$mul$d:/tangnano4k/SOBEL_TANGNANO4K/verilog/sobel/rgb_to_gray.v:41$3">B</text></g><g transform="translate(30,10)" s:x="30" s:y="10" s:pid="out0" id="port_$mul$d:/tangnano4k/SOBEL_TANGNANO4K/verilog/sobel/rgb_to_gray.v:41$3~Y"><text x="5" y="-4" style="fill:#000; stroke:none" class="cell_$mul$d:/tangnano4k/SOBEL_TANGNANO4K/verilog/sobel/rgb_to_gray.v:41$3">Y</text></g></g><g s:type="generic" transform="translate(395,329.5)" s:width="30" s:height="40" id="cell_$mul$d:/tangnano4k/SOBEL_TANGNANO4K/verilog/sobel/rgb_to_gray.v:42$4"><text x="15" y="-4" class="nodelabel cell_$mul$d:/tangnano4k/SOBEL_TANGNANO4K/verilog/sobel/rgb_to_gray.v:42$4" s:attribute="ref">$mul</text><rect width="30" height="40" s:generic="body" fill="#ffae46" rx="0" class="cell_$mul$d:/tangnano4k/SOBEL_TANGNANO4K/verilog/sobel/rgb_to_gray.v:42$4"/><g transform="translate(0,10)" s:x="0" s:y="10" s:pid="in0" id="port_$mul$d:/tangnano4k/SOBEL_TANGNANO4K/verilog/sobel/rgb_to_gray.v:42$4~A"><text x="-3" y="-4" class="inputPortLabel cell_$mul$d:/tangnano4k/SOBEL_TANGNANO4K/verilog/sobel/rgb_to_gray.v:42$4">A</text></g><g transform="translate(0,30)" s:x="0" s:y="10" s:pid="in0" id="port_$mul$d:/tangnano4k/SOBEL_TANGNANO4K/verilog/sobel/rgb_to_gray.v:42$4~B"><text x="-3" y="-4" class="inputPortLabel cell_$mul$d:/tangnano4k/SOBEL_TANGNANO4K/verilog/sobel/rgb_to_gray.v:42$4">B</text></g><g transform="translate(30,10)" s:x="30" s:y="10" s:pid="out0" id="port_$mul$d:/tangnano4k/SOBEL_TANGNANO4K/verilog/sobel/rgb_to_gray.v:42$4~Y"><text x="5" y="-4" style="fill:#000; stroke:none" class="cell_$mul$d:/tangnano4k/SOBEL_TANGNANO4K/verilog/sobel/rgb_to_gray.v:42$4">Y</text></g></g><g s:type="generic" transform="translate(885,397)" s:width="30" s:height="40" id="cell_$mul$d:/tangnano4k/SOBEL_TANGNANO4K/verilog/sobel/rgb_to_gray.v:43$5"><text x="15" y="-4" class="nodelabel cell_$mul$d:/tangnano4k/SOBEL_TANGNANO4K/verilog/sobel/rgb_to_gray.v:43$5" s:attribute="ref">$mul</text><rect width="30" height="40" s:generic="body" fill="#ffae46" rx="0" class="cell_$mul$d:/tangnano4k/SOBEL_TANGNANO4K/verilog/sobel/rgb_to_gray.v:43$5"/><g transform="translate(0,10)" s:x="0" s:y="10" s:pid="in0" id="port_$mul$d:/tangnano4k/SOBEL_TANGNANO4K/verilog/sobel/rgb_to_gray.v:43$5~A"><text x="-3" y="-4" class="inputPortLabel cell_$mul$d:/tangnano4k/SOBEL_TANGNANO4K/verilog/sobel/rgb_to_gray.v:43$5">A</text></g><g transform="translate(0,30)" s:x="0" s:y="10" s:pid="in0" id="port_$mul$d:/tangnano4k/SOBEL_TANGNANO4K/verilog/sobel/rgb_to_gray.v:43$5~B"><text x="-3" y="-4" class="inputPortLabel cell_$mul$d:/tangnano4k/SOBEL_TANGNANO4K/verilog/sobel/rgb_to_gray.v:43$5">B</text></g><g transform="translate(30,10)" s:x="30" s:y="10" s:pid="out0" id="port_$mul$d:/tangnano4k/SOBEL_TANGNANO4K/verilog/sobel/rgb_to_gray.v:43$5~Y"><text x="5" y="-4" style="fill:#000; stroke:none" class="cell_$mul$d:/tangnano4k/SOBEL_TANGNANO4K/verilog/sobel/rgb_to_gray.v:43$5">Y</text></g></g><g s:type="generic" transform="translate(1856,430.5)" s:width="30" s:height="40" id="cell_$procdff$14"><text x="15" y="-4" class="nodelabel cell_$procdff$14" s:attribute="ref">$adff</text><rect width="30" height="60" s:generic="body" fill="#ffae46" rx="0" class="cell_$procdff$14"/><g transform="translate(0,10)" s:x="0" s:y="10" s:pid="in0" id="port_$procdff$14~ARST"><text x="-3" y="-4" class="inputPortLabel cell_$procdff$14">ARST</text></g><g transform="translate(0,30)" s:x="0" s:y="10" s:pid="in0" id="port_$procdff$14~CLK"><text x="-3" y="-4" class="inputPortLabel cell_$procdff$14">CLK</text></g><g transform="translate(0,50)" s:x="0" s:y="10" s:pid="in0" id="port_$procdff$14~D"><text x="-3" y="-4" class="inputPortLabel cell_$procdff$14">D</text></g><g transform="translate(30,10)" s:x="30" s:y="10" s:pid="out0" id="port_$procdff$14~Q"><text x="5" y="-4" style="fill:#000; stroke:none" class="cell_$procdff$14">Q</text></g></g><g s:type="generic" transform="translate(1730,349.5)" s:width="30" s:height="40" id="cell_$procdff$19"><text x="15" y="-4" class="nodelabel cell_$procdff$19" s:attribute="ref">$adff-bus</text><rect width="30" height="60" s:generic="body" fill="#ffae46" rx="0" class="cell_$procdff$19"/><g transform="translate(0,10)" s:x="0" s:y="10" s:pid="in0" id="port_$procdff$19~ARST"><text x="-3" y="-4" class="inputPortLabel cell_$procdff$19">ARST</text></g><g transform="translate(0,30)" s:x="0" s:y="10" s:pid="in0" id="port_$procdff$19~CLK"><text x="-3" y="-4" class="inputPortLabel cell_$procdff$19">CLK</text></g><g transform="translate(0,50)" s:x="0" s:y="10" s:pid="in0" id="port_$procdff$19~D"><text x="-3" y="-4" class="inputPortLabel cell_$procdff$19">D</text></g><g transform="translate(30,10)" s:x="30" s:y="10" s:pid="out0" id="port_$procdff$19~Q"><text x="5" y="-4" style="fill:#000; stroke:none" class="cell_$procdff$19">Q</text></g></g><g s:type="inputExt" transform="translate(1640,451)" s:width="30" s:height="20" id="cell_clk"><text x="15" y="-4" class="nodelabel cell_clk" s:attribute="ref">clk</text><s:alias val="$_inputExt_"/><path d="M0,0 L0,20 L15,20 L30,10 L15,0 Z" fill="#8bcaff" class="cell_clk"/><g s:x="30" s:y="10" s:pid="Y"/></g><g s:type="inputExt" transform="translate(1640,318.5)" s:width="30" s:height="20" id="cell_rst_n"><text x="15" y="-4" class="nodelabel cell_rst_n" s:attribute="ref">rst_n</text><s:alias val="$_inputExt_"/><path d="M0,0 L0,20 L15,20 L30,10 L15,0 Z" fill="#8bcaff" class="cell_rst_n"/><g s:x="30" s:y="10" s:pid="Y"/></g><g s:type="inputExt" transform="translate(1730,482)" s:width="30" s:height="20" id="cell_pixel_valid"><text x="15" y="-4" class="nodelabel cell_pixel_valid" s:attribute="ref">pixel_valid</text><s:alias val="$_inputExt_"/><path d="M0,0 L0,20 L15,20 L30,10 L15,0 Z" fill="#8bcaff" class="cell_pixel_valid"/><g s:x="30" s:y="10" s:pid="Y"/></g><g s:type="inputExt" transform="translate(12,239)" s:width="30" s:height="20" id="cell_rgb565_in"><text x="15" y="-4" class="nodelabel cell_rgb565_in" s:attribute="ref">rgb565_in</text><s:alias val="$_inputExt_"/><path d="M0,0 L0,20 L15,20 L30,10 L15,0 Z" fill="#8bcaff" class="cell_rgb565_in"/><g s:x="30" s:y="10" s:pid="Y"/></g><g s:type="outputExt" transform="translate(1957,431)" s:width="30" s:height="20" id="cell_gray_valid"><text x="15" y="-4" class="nodelabel cell_gray_valid" s:attribute="ref">gray_valid</text><s:alias val="$_outputExt_"/><path d="M30,0 L30,20 L15,20 L0,10 L15,0 Z" fill="#169300" class="cell_gray_valid"/><g s:x="0" s:y="10" s:pid="A"/></g><g s:type="outputExt" transform="translate(1958,263.5)" s:width="30" s:height="20" id="cell_gray_out"><text x="15" y="-4" class="nodelabel cell_gray_out" s:attribute="ref">gray_out</text><s:alias val="$_outputExt_"/><path d="M30,0 L30,20 L15,20 L0,10 L15,0 Z" fill="#169300" class="cell_gray_out"/><g s:x="0" s:y="10" s:pid="A"/></g><g s:type="constant" transform="translate(267,115.5)" s:width="30" s:height="20" id="cell_00000000000000000000000001001101"><text x="15" y="-4" class="nodelabel cell_00000000000000000000000001001101" s:attribute="ref">0x4d</text><s:alias val="$_constant_"/><rect width="30" height="20" fill="#745bff" class="cell_00000000000000000000000001001101"/><g s:x="31" s:y="10" s:pid="Y"/></g><g s:type="constant" transform="translate(267,350)" s:width="30" s:height="20" id="cell_00000000000000000000000010010111"><text x="15" y="-4" class="nodelabel cell_00000000000000000000000010010111" s:attribute="ref">0x97</text><s:alias val="$_constant_"/><rect width="30" height="20" fill="#745bff" class="cell_00000000000000000000000010010111"/><g s:x="31" s:y="10" s:pid="Y"/></g><g s:type="constant" transform="translate(395,417.5)" s:width="30" s:height="20" id="cell_00000000000000000000000000011100"><text x="15" y="-4" class="nodelabel cell_00000000000000000000000000011100" s:attribute="ref">0x1c</text><s:alias val="$_constant_"/><rect width="30" height="20" fill="#745bff" class="cell_00000000000000000000000000011100"/><g s:x="31" s:y="10" s:pid="Y"/></g><g s:type="join" transform="translate(287,30.5)" s:width="5" s:height="40" id="cell_$join$,18,19,20,16,17,18,19,20,"><rect width="5" height="40" class="splitjoinBody" s:generic="body"/><s:alias val="$_join_"/><g s:x="5" s:y="20" s:pid="out"/><g transform="translate(-1,10)" s:x="-1" s:y="10" s:pid="in0"><text x="-3" y="-4" class="inputPortLabel">0:2</text></g><g transform="translate(-1,30)" s:x="-1" s:y="10" s:pid="in0"><text x="-3" y="-4" class="inputPortLabel">3:7</text></g></g><g s:type="join" transform="translate(287,200)" s:width="5" s:height="40" id="cell_$join$,14,15,10,11,12,13,14,15,"><rect width="5" height="40" class="splitjoinBody" s:generic="body"/><s:alias val="$_join_"/><g s:x="5" s:y="20" s:pid="out"/><g transform="translate(-1,10)" s:x="-1" s:y="10" s:pid="in0"><text x="-3" y="-4" class="inputPortLabel">0:1</text></g><g transform="translate(-1,30)" s:x="-1" s:y="10" s:pid="in0"><text x="-3" y="-4" class="inputPortLabel">2:7</text></g></g><g s:type="join" transform="translate(530.6666666666666,175)" s:width="5" s:height="40" id="cell_$join$,7,8,9,5,6,7,8,9,"><rect width="5" height="40" class="splitjoinBody" s:generic="body"/><s:alias val="$_join_"/><g s:x="5" s:y="20" s:pid="out"/><g transform="translate(-1,10)" s:x="-1" s:y="10" s:pid="in0"><text x="-3" y="-4" class="inputPortLabel">0:2</text></g><g transform="translate(-1,30)" s:x="-1" s:y="10" s:pid="in0"><text x="-3" y="-4" class="inputPortLabel">3:7</text></g></g><g s:type="split" transform="translate(141,188.5)" s:width="5" s:height="40" id="cell_$split$,5,6,7,8,9,10,11,12,13,14,15,16,17,18,19,20,"><rect width="5" height="120" class="splitjoinBody" s:generic="body"/><s:alias val="$_split_"/><g s:x="-1" s:y="20" s:pid="in"/><g transform="translate(5,10)" s:x="5" s:y="10" s:pid="out0"><text x="5" y="-4">13:15</text></g><g transform="translate(5,30)" s:x="5" s:y="10" s:pid="out0"><text x="5" y="-4">11:15</text></g><g transform="translate(5,50)" s:x="5" s:y="10" s:pid="out0"><text x="5" y="-4">9:10</text></g><g transform="translate(5,70)" s:x="5" s:y="10" s:pid="out0"><text x="5" y="-4">5:10</text></g><g transform="translate(5,90)" s:x="5" s:y="10" s:pid="out0"><text x="5" y="-4">2:4</text></g><g transform="translate(5,110)" s:x="5" s:y="10" s:pid="out0"><text x="5" y="-4">0:4</text></g></g><g s:type="split" transform="translate(1082.5,95)" s:width="5" s:height="40" id="cell_$split$,50,51,52,53,54,55,56,57,58,59,60,61,62,63,64,65,137,138,139,140,141,142,143,144,145,146,147,148,149,150,151,152,"><rect width="5" height="20" class="splitjoinBody" s:generic="body"/><s:alias val="$_split_"/><g s:x="-1" s:y="20" s:pid="in"/><g transform="translate(5,10)" s:x="5" s:y="10" s:pid="out0"><text x="5" y="-4">0:15</text></g></g><g s:type="split" transform="translate(1082.5,165)" s:width="5" s:height="40" id="cell_$split$,66,67,68,69,70,71,72,73,74,75,76,77,78,79,80,81,153,154,155,156,157,158,159,160,161,162,163,164,165,166,167,168,"><rect width="5" height="20" class="splitjoinBody" s:generic="body"/><s:alias val="$_split_"/><g s:x="-1" s:y="20" s:pid="in"/><g transform="translate(5,10)" s:x="5" s:y="10" s:pid="out0"><text x="5" y="-4">0:15</text></g></g><g s:type="split" transform="translate(1368,397)" s:width="5" s:height="40" id="cell_$split$,100,101,102,103,104,105,106,107,108,109,110,111,112,113,114,115,169,170,171,172,173,174,175,176,177,178,179,180,181,182,183,184,"><rect width="5" height="20" class="splitjoinBody" s:generic="body"/><s:alias val="$_split_"/><g s:x="-1" s:y="20" s:pid="in"/><g transform="translate(5,10)" s:x="5" s:y="10" s:pid="out0"><text x="5" y="-4">0:15</text></g></g><g s:type="split" transform="translate(1574,389.5)" s:width="5" s:height="40" id="cell_$split$,116,117,118,119,120,121,122,123,124,125,126,127,128,129,130,131,132,133,"><rect width="5" height="20" class="splitjoinBody" s:generic="body"/><s:alias val="$_split_"/><g s:x="-1" s:y="20" s:pid="in"/><g transform="translate(5,10)" s:x="5" s:y="10" s:pid="out0"><text x="5" y="-4">8:15</text></g></g><line x1="293" x2="308" y1="51" y2="51" class="net_18,19,20,16,17,18,19,20 width_8" style="stroke-width: 2"/><line x1="308" x2="308" y1="51" y2="16" class="net_18,19,20,16,17,18,19,20 width_8" style="stroke-width: 2"/><line x1="308" x2="1680" y1="16" y2="16" class="net_18,19,20,16,17,18,19,20 width_8" style="stroke-width: 2"/><line x1="1680" x2="1680" y1="16" y2="21" class="net_18,19,20,16,17,18,19,20 width_8" style="stroke-width: 2"/><circle cx="308" cy="51" r="3" style="fill:#000" class="net_18,19,20,16,17,18,19,20 width_8"/><line x1="1680" x2="1737.3333333333333" y1="21" y2="21" class="net_18,19,20,16,17,18,19,20 width_8" style="stroke-width: 2"/><line x1="293" x2="362" y1="51" y2="51" class="net_18,19,20,16,17,18,19,20 width_8" style="stroke-width: 2"/><line x1="362" x2="362" y1="51" y2="105.5" class="net_18,19,20,16,17,18,19,20 width_8" style="stroke-width: 2"/><line x1="362" x2="395" y1="105.5" y2="105.5" class="net_18,19,20,16,17,18,19,20 width_8" style="stroke-width: 2"/><line x1="293" x2="318" y1="220.5" y2="220.5" class="net_14,15,10,11,12,13,14,15 width_8" style="stroke-width: 2"/><line x1="318" x2="318" y1="220.5" y2="36" class="net_14,15,10,11,12,13,14,15 width_8" style="stroke-width: 2"/><circle cx="318" cy="220.5" r="3" style="fill:#000" class="net_14,15,10,11,12,13,14,15 width_8"/><line x1="318" x2="1737.3333333333333" y1="36" y2="36" class="net_14,15,10,11,12,13,14,15 width_8" style="stroke-width: 2"/><line x1="293" x2="362" y1="220.5" y2="220.5" class="net_14,15,10,11,12,13,14,15 width_8" style="stroke-width: 2"/><line x1="362" x2="362" y1="220.5" y2="340" class="net_14,15,10,11,12,13,14,15 width_8" style="stroke-width: 2"/><line x1="362" x2="395" y1="340" y2="340" class="net_14,15,10,11,12,13,14,15 width_8" style="stroke-width: 2"/><line x1="1761.3333333333333" x2="1932" y1="28.5" y2="28.5" class="net_30,31,32,33,34,35,36,37,38,39 width_10" style="stroke-width: 2"/><line x1="1932" x2="1932" y1="28.5" y2="69" class="net_30,31,32,33,34,35,36,37,38,39 width_10" style="stroke-width: 2"/><line x1="1932" x2="1960" y1="69" y2="69" class="net_30,31,32,33,34,35,36,37,38,39 width_10" style="stroke-width: 2"/><line x1="536.6666666666666" x2="813" y1="195.5" y2="195.5" class="net_7,8,9,5,6,7,8,9 width_8" style="stroke-width: 2"/><line x1="813" x2="813" y1="195.5" y2="84" class="net_7,8,9,5,6,7,8,9 width_8" style="stroke-width: 2"/><circle cx="813" cy="195.5" r="3" style="fill:#000" class="net_7,8,9,5,6,7,8,9 width_8"/><line x1="813" x2="1960" y1="84" y2="84" class="net_7,8,9,5,6,7,8,9 width_8" style="stroke-width: 2"/><line x1="536.6666666666666" x2="852" y1="195.5" y2="195.5" class="net_7,8,9,5,6,7,8,9 width_8" style="stroke-width: 2"/><line x1="852" x2="852" y1="195.5" y2="407.5" class="net_7,8,9,5,6,7,8,9 width_8" style="stroke-width: 2"/><line x1="852" x2="885" y1="407.5" y2="407.5" class="net_7,8,9,5,6,7,8,9 width_8" style="stroke-width: 2"/><line x1="1088.5" x2="1342" y1="105.5" y2="105.5" class="net_50,51,52,53,54,55,56,57,58,59,60,61,62,63,64,65 width_16" style="stroke-width: 2"/><line x1="1342" x2="1342" y1="105.5" y2="160.5" class="net_50,51,52,53,54,55,56,57,58,59,60,61,62,63,64,65 width_16" style="stroke-width: 2"/><line x1="1342" x2="1371.6666666666667" y1="160.5" y2="160.5" class="net_50,51,52,53,54,55,56,57,58,59,60,61,62,63,64,65 width_16" style="stroke-width: 2"/><line x1="1088.5" x2="1371.6666666666667" y1="175.5" y2="175.5" class="net_66,67,68,69,70,71,72,73,74,75,76,77,78,79,80,81 width_16" style="stroke-width: 2"/><line x1="1395.6666666666667" x2="1448" y1="168" y2="168" class="net_82,83,84,85,86,87,88,89,90,91,92,93,94,95,96,97,98,99 width_18" style="stroke-width: 2"/><line x1="1448" x2="1448" y1="168" y2="392.5" class="net_82,83,84,85,86,87,88,89,90,91,92,93,94,95,96,97,98,99 width_18" style="stroke-width: 2"/><line x1="1448" x2="1475" y1="392.5" y2="392.5" class="net_82,83,84,85,86,87,88,89,90,91,92,93,94,95,96,97,98,99 width_18" style="stroke-width: 2"/><line x1="1374" x2="1475" y1="407.5" y2="407.5" class="net_100,101,102,103,104,105,106,107,108,109,110,111,112,113,114,115 width_16" style="stroke-width: 2"/><line x1="1670" x2="1816" y1="328.5" y2="328.5" class="net_3 width_1" style="stroke-width: 1"/><line x1="1816" x2="1816" y1="328.5" y2="208.5" class="net_3 width_1" style="stroke-width: 1"/><line x1="1816" x2="1957" y1="208.5" y2="208.5" class="net_3 width_1" style="stroke-width: 1"/><line x1="1670" x2="1816" y1="328.5" y2="328.5" class="net_3 width_1" style="stroke-width: 1"/><line x1="1816" x2="1816" y1="328.5" y2="208.5" class="net_3 width_1" style="stroke-width: 1"/><line x1="1816" x2="1932" y1="208.5" y2="208.5" class="net_3 width_1" style="stroke-width: 1"/><line x1="1932" x2="1932" y1="208.5" y2="153.5" class="net_3 width_1" style="stroke-width: 1"/><circle cx="1816" cy="328.5" r="2" style="fill:#000" class="net_3 width_1"/><circle cx="1932" cy="208.5" r="2" style="fill:#000" class="net_3 width_1"/><line x1="1932" x2="1957" y1="153.5" y2="153.5" class="net_3 width_1" style="stroke-width: 1"/><line x1="1670" x2="1957" y1="328.5" y2="328.5" class="net_3 width_1" style="stroke-width: 1"/><line x1="1670" x2="1816" y1="328.5" y2="328.5" class="net_3 width_1" style="stroke-width: 1"/><line x1="1816" x2="1816" y1="328.5" y2="441" class="net_3 width_1" style="stroke-width: 1"/><line x1="1816" x2="1856" y1="441" y2="441" class="net_3 width_1" style="stroke-width: 1"/><line x1="1670" x2="1680" y1="328.5" y2="328.5" class="net_3 width_1" style="stroke-width: 1"/><line x1="1680" x2="1680" y1="328.5" y2="360" class="net_3 width_1" style="stroke-width: 1"/><circle cx="1680" cy="328.5" r="2" style="fill:#000" class="net_3 width_1"/><line x1="1680" x2="1730" y1="360" y2="360" class="net_3 width_1" style="stroke-width: 1"/><line x1="298" x2="394" y1="125.5" y2="125.5" class="net_185,186,187,188,189,190,191,192,193,194,195,196,197,198,199,200,201,202,203,204,205,206,207,208,209,210,211,212,213,214,215,216 width_32" style="stroke-width: 2"/><line x1="298" x2="394" y1="360" y2="360" class="net_217,218,219,220,221,222,223,224,225,226,227,228,229,230,231,232,233,234,235,236,237,238,239,240,241,242,243,244,245,246,247,248 width_32" style="stroke-width: 2"/><line x1="426" x2="884" y1="427.5" y2="427.5" class="net_249,250,251,252,253,254,255,256,257,258,259,260,261,262,263,264,265,266,267,268,269,270,271,272,273,274,275,276,277,278,279,280 width_32" style="stroke-width: 2"/><line x1="1670" x2="1855" y1="461" y2="461" class="net_2 width_1" style="stroke-width: 1"/><line x1="1670" x2="1680" y1="461" y2="461" class="net_2 width_1" style="stroke-width: 1"/><line x1="1680" x2="1680" y1="461" y2="380" class="net_2 width_1" style="stroke-width: 1"/><circle cx="1680" cy="461" r="2" style="fill:#000" class="net_2 width_1"/><line x1="1680" x2="1729" y1="380" y2="380" class="net_2 width_1" style="stroke-width: 1"/><line x1="1760" x2="1806" y1="492" y2="492" class="net_4 width_1" style="stroke-width: 1"/><line x1="1806" x2="1806" y1="492" y2="481" class="net_4 width_1" style="stroke-width: 1"/><line x1="1806" x2="1855" y1="481" y2="481" class="net_4 width_1" style="stroke-width: 1"/><line x1="1580" x2="1729" y1="400" y2="400" class="net_124,125,126,127,128,129,130,131 width_8" style="stroke-width: 2"/><line x1="1887" x2="1957" y1="441" y2="441" class="net_21 width_1" style="stroke-width: 1"/><line x1="1761" x2="1806" y1="360" y2="360" class="net_22,23,24,25,26,27,28,29 width_8" style="stroke-width: 2"/><line x1="1806" x2="1806" y1="360" y2="273.5" class="net_22,23,24,25,26,27,28,29 width_8" style="stroke-width: 2"/><line x1="1806" x2="1958" y1="273.5" y2="273.5" class="net_22,23,24,25,26,27,28,29 width_8" style="stroke-width: 2"/><line x1="147" x2="188" y1="199" y2="199" class="net_18,19,20 width_3" style="stroke-width: 2"/><line x1="188" x2="188" y1="199" y2="41" class="net_18,19,20 width_3" style="stroke-width: 2"/><line x1="188" x2="286" y1="41" y2="41" class="net_18,19,20 width_3" style="stroke-width: 2"/><line x1="147" x2="198" y1="219" y2="219" class="net_16,17,18,19,20 width_5" style="stroke-width: 2"/><line x1="198" x2="198" y1="219" y2="61" class="net_16,17,18,19,20 width_5" style="stroke-width: 2"/><line x1="198" x2="286" y1="61" y2="61" class="net_16,17,18,19,20 width_5" style="stroke-width: 2"/><line x1="147" x2="208" y1="239" y2="239" class="net_14,15 width_2" style="stroke-width: 2"/><line x1="208" x2="208" y1="239" y2="210.5" class="net_14,15 width_2" style="stroke-width: 2"/><line x1="208" x2="286" y1="210.5" y2="210.5" class="net_14,15 width_2" style="stroke-width: 2"/><line x1="147" x2="218" y1="259" y2="259" class="net_10,11,12,13,14,15 width_6" style="stroke-width: 2"/><line x1="218" x2="218" y1="259" y2="230.5" class="net_10,11,12,13,14,15 width_6" style="stroke-width: 2"/><line x1="218" x2="286" y1="230.5" y2="230.5" class="net_10,11,12,13,14,15 width_6" style="stroke-width: 2"/><line x1="147" x2="328" y1="279" y2="279" class="net_7,8,9 width_3" style="stroke-width: 2"/><line x1="328" x2="328" y1="279" y2="193.5" class="net_7,8,9 width_3" style="stroke-width: 2"/><line x1="328" x2="362" y1="193.5" y2="193.5" class="net_7,8,9 width_3" style="stroke-width: 2"/><line x1="362" x2="362" y1="193.5" y2="185.5" class="net_7,8,9 width_3" style="stroke-width: 2"/><line x1="362" x2="529.6666666666666" y1="185.5" y2="185.5" class="net_7,8,9 width_3" style="stroke-width: 2"/><line x1="147" x2="338" y1="299" y2="299" class="net_5,6,7,8,9 width_5" style="stroke-width: 2"/><line x1="338" x2="338" y1="299" y2="205.5" class="net_5,6,7,8,9 width_5" style="stroke-width: 2"/><line x1="338" x2="529.6666666666666" y1="205.5" y2="205.5" class="net_5,6,7,8,9 width_5" style="stroke-width: 2"/><line x1="42" x2="140" y1="249" y2="249" class="net_5,6,7,8,9,10,11,12,13,14,15,16,17,18,19,20 width_16" style="stroke-width: 2"/><line x1="426" x2="1081.5" y1="105.5" y2="105.5" class="net_50,51,52,53,54,55,56,57,58,59,60,61,62,63,64,65,137,138,139,140,141,142,143,144,145,146,147,148,149,150,151,152 width_32" style="stroke-width: 2"/><line x1="426" x2="823" y1="340" y2="340" class="net_66,67,68,69,70,71,72,73,74,75,76,77,78,79,80,81,153,154,155,156,157,158,159,160,161,162,163,164,165,166,167,168 width_32" style="stroke-width: 2"/><line x1="823" x2="823" y1="340" y2="175.5" class="net_66,67,68,69,70,71,72,73,74,75,76,77,78,79,80,81,153,154,155,156,157,158,159,160,161,162,163,164,165,166,167,168 width_32" style="stroke-width: 2"/><line x1="823" x2="1081.5" y1="175.5" y2="175.5" class="net_66,67,68,69,70,71,72,73,74,75,76,77,78,79,80,81,153,154,155,156,157,158,159,160,161,162,163,164,165,166,167,168 width_32" style="stroke-width: 2"/><line x1="916" x2="1367" y1="407.5" y2="407.5" class="net_100,101,102,103,104,105,106,107,108,109,110,111,112,113,114,115,169,170,171,172,173,174,175,176,177,178,179,180,181,182,183,184 width_32" style="stroke-width: 2"/><line x1="1499" x2="1573" y1="400" y2="400" class="net_116,117,118,119,120,121,122,123,124,125,126,127,128,129,130,131,132,133 width_18" style="stroke-width: 2"/><rect x="349" y="46" width="16" height="9" class="net_18,19,20,16,17,18,19,20 width_8 busLabel_8" style="fill: white; stroke: none"/><text x="348" y="54" class="net_18,19,20,16,17,18,19,20 width_8 busLabel_8">/8/</text><rect x="349" y="46" width="16" height="9" class="net_18,19,20,16,17,18,19,20 width_8 busLabel_8" style="fill: white; stroke: none"/><text x="348" y="54" class="net_18,19,20,16,17,18,19,20 width_8 busLabel_8">/8/</text><rect x="349" y="215.5" width="16" height="9" class="net_14,15,10,11,12,13,14,15 width_8 busLabel_8" style="fill: white; stroke: none"/><text x="348" y="223.5" class="net_14,15,10,11,12,13,14,15 width_8 busLabel_8">/8/</text><rect x="349" y="215.5" width="16" height="9" class="net_14,15,10,11,12,13,14,15 width_8 busLabel_8" style="fill: white; stroke: none"/><text x="348" y="223.5" class="net_14,15,10,11,12,13,14,15 width_8 busLabel_8">/8/</text><rect x="1875.5" y="23.5" width="22" height="9" class="net_30,31,32,33,34,35,36,37,38,39 width_10 busLabel_10" style="fill: white; stroke: none"/><text x="1874.5" y="31.5" class="net_30,31,32,33,34,35,36,37,38,39 width_10 busLabel_10">/10/</text><rect x="839" y="190.5" width="16" height="9" class="net_7,8,9,5,6,7,8,9 width_8 busLabel_8" style="fill: white; stroke: none"/><text x="838" y="198.5" class="net_7,8,9,5,6,7,8,9 width_8 busLabel_8">/8/</text><rect x="839" y="190.5" width="16" height="9" class="net_7,8,9,5,6,7,8,9 width_8 busLabel_8" style="fill: white; stroke: none"/><text x="838" y="198.5" class="net_7,8,9,5,6,7,8,9 width_8 busLabel_8">/8/</text><rect x="1329" y="100.5" width="22" height="9" class="net_50,51,52,53,54,55,56,57,58,59,60,61,62,63,64,65 width_16 busLabel_16" style="fill: white; stroke: none"/><text x="1328" y="108.5" class="net_50,51,52,53,54,55,56,57,58,59,60,61,62,63,64,65 width_16 busLabel_16">/16/</text><rect x="1329" y="170.5" width="22" height="9" class="net_66,67,68,69,70,71,72,73,74,75,76,77,78,79,80,81 width_16 busLabel_16" style="fill: white; stroke: none"/><text x="1328" y="178.5" class="net_66,67,68,69,70,71,72,73,74,75,76,77,78,79,80,81 width_16 busLabel_16">/16/</text><rect x="1435" y="163" width="22" height="9" class="net_82,83,84,85,86,87,88,89,90,91,92,93,94,95,96,97,98,99 width_18 busLabel_18" style="fill: white; stroke: none"/><text x="1434" y="171" class="net_82,83,84,85,86,87,88,89,90,91,92,93,94,95,96,97,98,99 width_18 busLabel_18">/18/</text><rect x="1435" y="402.5" width="22" height="9" class="net_100,101,102,103,104,105,106,107,108,109,110,111,112,113,114,115 width_16 busLabel_16" style="fill: white; stroke: none"/><text x="1434" y="410.5" class="net_100,101,102,103,104,105,106,107,108,109,110,111,112,113,114,115 width_16 busLabel_16">/16/</text><rect x="349" y="120.5" width="22" height="9" class="net_185,186,187,188,189,190,191,192,193,194,195,196,197,198,199,200,201,202,203,204,205,206,207,208,209,210,211,212,213,214,215,216 width_32 busLabel_32" style="fill: white; stroke: none"/><text x="348" y="128.5" class="net_185,186,187,188,189,190,191,192,193,194,195,196,197,198,199,200,201,202,203,204,205,206,207,208,209,210,211,212,213,214,215,216 width_32 busLabel_32">/32/</text><rect x="349" y="355" width="22" height="9" class="net_217,218,219,220,221,222,223,224,225,226,227,228,229,230,231,232,233,234,235,236,237,238,239,240,241,242,243,244,245,246,247,248 width_32 busLabel_32" style="fill: white; stroke: none"/><text x="348" y="363" class="net_217,218,219,220,221,222,223,224,225,226,227,228,229,230,231,232,233,234,235,236,237,238,239,240,241,242,243,244,245,246,247,248 width_32 busLabel_32">/32/</text><rect x="839" y="422.5" width="22" height="9" class="net_249,250,251,252,253,254,255,256,257,258,259,260,261,262,263,264,265,266,267,268,269,270,271,272,273,274,275,276,277,278,279,280 width_32 busLabel_32" style="fill: white; stroke: none"/><text x="838" y="430.5" class="net_249,250,251,252,253,254,255,256,257,258,259,260,261,262,263,264,265,266,267,268,269,270,271,272,273,274,275,276,277,278,279,280 width_32 busLabel_32">/32/</text><rect x="1654" y="395" width="16" height="9" class="net_124,125,126,127,128,129,130,131 width_8 busLabel_8" style="fill: white; stroke: none"/><text x="1653" y="403" class="net_124,125,126,127,128,129,130,131 width_8 busLabel_8">/8/</text><rect x="1875.5" y="268.5" width="16" height="9" class="net_22,23,24,25,26,27,28,29 width_8 busLabel_8" style="fill: white; stroke: none"/><text x="1874.5" y="276.5" class="net_22,23,24,25,26,27,28,29 width_8 busLabel_8">/8/</text><rect x="229" y="36" width="16" height="9" class="net_18,19,20 width_3 busLabel_3" style="fill: white; stroke: none"/><text x="228" y="44" class="net_18,19,20 width_3 busLabel_3">/3/</text><rect x="229" y="56" width="16" height="9" class="net_16,17,18,19,20 width_5 busLabel_5" style="fill: white; stroke: none"/><text x="228" y="64" class="net_16,17,18,19,20 width_5 busLabel_5">/5/</text><rect x="229" y="205.5" width="16" height="9" class="net_14,15 width_2 busLabel_2" style="fill: white; stroke: none"/><text x="228" y="213.5" class="net_14,15 width_2 busLabel_2">/2/</text><rect x="229" y="225.5" width="16" height="9" class="net_10,11,12,13,14,15 width_6 busLabel_6" style="fill: white; stroke: none"/><text x="228" y="233.5" class="net_10,11,12,13,14,15 width_6 busLabel_6">/6/</text><rect x="281.5" y="274" width="16" height="9" class="net_7,8,9 width_3 busLabel_3" style="fill: white; stroke: none"/><text x="280.5" y="282" class="net_7,8,9 width_3 busLabel_3">/3/</text><rect x="281.5" y="294" width="16" height="9" class="net_5,6,7,8,9 width_5 busLabel_5" style="fill: white; stroke: none"/><text x="280.5" y="302" class="net_5,6,7,8,9 width_5 busLabel_5">/5/</text><rect x="102" y="244" width="22" height="9" class="net_5,6,7,8,9,10,11,12,13,14,15,16,17,18,19,20 width_16 busLabel_16" style="fill: white; stroke: none"/><text x="101" y="252" class="net_5,6,7,8,9,10,11,12,13,14,15,16,17,18,19,20 width_16 busLabel_16">/16/</text><rect x="839" y="100.5" width="22" height="9" class="net_50,51,52,53,54,55,56,57,58,59,60,61,62,63,64,65,137,138,139,140,141,142,143,144,145,146,147,148,149,150,151,152 width_32 busLabel_32" style="fill: white; stroke: none"/><text x="838" y="108.5" class="net_50,51,52,53,54,55,56,57,58,59,60,61,62,63,64,65,137,138,139,140,141,142,143,144,145,146,147,148,149,150,151,152 width_32 busLabel_32">/32/</text><rect x="839" y="170.5" width="22" height="9" class="net_66,67,68,69,70,71,72,73,74,75,76,77,78,79,80,81,153,154,155,156,157,158,159,160,161,162,163,164,165,166,167,168 width_32 busLabel_32" style="fill: white; stroke: none"/><text x="838" y="178.5" class="net_66,67,68,69,70,71,72,73,74,75,76,77,78,79,80,81,153,154,155,156,157,158,159,160,161,162,163,164,165,166,167,168 width_32 busLabel_32">/32/</text><rect x="1329" y="402.5" width="22" height="9" class="net_100,101,102,103,104,105,106,107,108,109,110,111,112,113,114,115,169,170,171,172,173,174,175,176,177,178,179,180,181,182,183,184 width_32 busLabel_32" style="fill: white; stroke: none"/><text x="1328" y="410.5" class="net_100,101,102,103,104,105,106,107,108,109,110,111,112,113,114,115,169,170,171,172,173,174,175,176,177,178,179,180,181,182,183,184 width_32 busLabel_32">/32/</text><rect x="1535" y="395" width="22" height="9" class="net_116,117,118,119,120,121,122,123,124,125,126,127,128,129,130,131,132,133 width_18 busLabel_18" style="fill: white; stroke: none"/><text x="1534" y="403" class="net_116,117,118,119,120,121,122,123,124,125,126,127,128,129,130,131,132,133 width_18 busLabel_18">/18/</text></svg>