<svg xmlns="http://www.w3.org/2000/svg" xmlns:xlink="http://www.w3.org/1999/xlink" xmlns:s="https://github.com/nturley/netlistsvg" width="303" height="620"><style>svg {
  stroke:#000;
  fill:none;
}
text {
  fill:#000;
  stroke:none;
  font-size:10px;
  font-weight: bold;
  font-family: "Courier New", monospace;
}
line {
    stroke-linecap: round;
}
.nodelabel {
  text-anchor: middle;
}
.inputPortLabel {
  text-anchor: end;
}
.splitjoinBody {
  fill:#000;
}</style><g s:type="generic" transform="translate(237,152)" s:width="30" s:height="40" id="cell_u_uart_rx"><text x="15" y="-4" class="nodelabel cell_u_uart_rx" s:attribute="ref">uart_rx</text><rect width="30" height="100" s:generic="body" fill="#ffae46" rx="0" class="cell_u_uart_rx"/><g transform="translate(0,10)" s:x="0" s:y="10" s:pid="in0" id="port_u_uart_rx~clk"><text x="-3" y="-4" class="inputPortLabel cell_u_uart_rx">clk</text></g><g transform="translate(0,30)" s:x="0" s:y="10" s:pid="in0" id="port_u_uart_rx~rst_n"><text x="-3" y="-4" class="inputPortLabel cell_u_uart_rx">rst_n</text></g><g transform="translate(0,50)" s:x="0" s:y="10" s:pid="in0" id="port_u_uart_rx~rx_data"><text x="-3" y="-4" class="inputPortLabel cell_u_uart_rx">rx_data</text></g><g transform="translate(0,70)" s:x="0" s:y="10" s:pid="in0" id="port_u_uart_rx~rx_pin"><text x="-3" y="-4" class="inputPortLabel cell_u_uart_rx">rx_pin</text></g><g transform="translate(0,90)" s:x="0" s:y="10" s:pid="in0" id="port_u_uart_rx~rx_valid"><text x="-3" y="-4" class="inputPortLabel cell_u_uart_rx">rx_valid</text></g></g><g s:type="generic" transform="translate(237,300)" s:width="30" s:height="40" id="cell_u_uart_tx"><text x="15" y="-4" class="nodelabel cell_u_uart_tx" s:attribute="ref">uart_tx</text><rect width="30" height="120" s:generic="body" fill="#ffae46" rx="0" class="cell_u_uart_tx"/><g transform="translate(0,10)" s:x="0" s:y="10" s:pid="in0" id="port_u_uart_tx~clk"><text x="-3" y="-4" class="inputPortLabel cell_u_uart_tx">clk</text></g><g transform="translate(0,30)" s:x="0" s:y="10" s:pid="in0" id="port_u_uart_tx~rst_n"><text x="-3" y="-4" class="inputPortLabel cell_u_uart_tx">rst_n</text></g><g transform="translate(0,50)" s:x="0" s:y="10" s:pid="in0" id="port_u_uart_tx~tx_data"><text x="-3" y="-4" class="inputPortLabel cell_u_uart_tx">tx_data</text></g><g transform="translate(0,70)" s:x="0" s:y="10" s:pid="in0" id="port_u_uart_tx~tx_pin"><text x="-3" y="-4" class="inputPortLabel cell_u_uart_tx">tx_pin</text></g><g transform="translate(0,90)" s:x="0" s:y="10" s:pid="in0" id="port_u_uart_tx~tx_ready"><text x="-3" y="-4" class="inputPortLabel cell_u_uart_tx">tx_ready</text></g><g transform="translate(0,110)" s:x="0" s:y="10" s:pid="in0" id="port_u_uart_tx~tx_valid"><text x="-3" y="-4" class="inputPortLabel cell_u_uart_tx">tx_valid</text></g></g><g s:type="inputExt" transform="translate(89,152.5)" s:width="30" s:height="20" id="cell_clk"><text x="15" y="-4" class="nodelabel cell_clk" s:attribute="ref">clk</text><s:alias val="$_inputExt_"/><path d="M0,0 L0,20 L15,20 L30,10 L15,0 Z" fill="#8bcaff" class="cell_clk"/><g s:x="30" s:y="10" s:pid="Y"/></g><g s:type="inputExt" transform="translate(89,282.5)" s:width="30" s:height="20" id="cell_rst_n"><text x="15" y="-4" class="nodelabel cell_rst_n" s:attribute="ref">rst_n</text><s:alias val="$_inputExt_"/><path d="M0,0 L0,20 L15,20 L30,10 L15,0 Z" fill="#8bcaff" class="cell_rst_n"/><g s:x="30" s:y="10" s:pid="Y"/></g><g s:type="inputExt" transform="translate(12,340.5)" s:width="30" s:height="20" id="cell_tx_data"><text x="15" y="-4" class="nodelabel cell_tx_data" s:attribute="ref">tx_data</text><s:alias val="$_inputExt_"/><path d="M0,0 L0,20 L15,20 L30,10 L15,0 Z" fill="#8bcaff" class="cell_tx_data"/><g s:x="30" s:y="10" s:pid="Y"/></g><g s:type="inputExt" transform="translate(89,588)" s:width="30" s:height="20" id="cell_tx_valid"><text x="15" y="-4" class="nodelabel cell_tx_valid" s:attribute="ref">tx_valid</text><s:alias val="$_inputExt_"/><path d="M0,0 L0,20 L15,20 L30,10 L15,0 Z" fill="#8bcaff" class="cell_tx_valid"/><g s:x="30" s:y="10" s:pid="Y"/></g><g s:type="outputExt" transform="translate(237,533)" s:width="30" s:height="20" id="cell_tx_ready"><text x="15" y="-4" class="nodelabel cell_tx_ready" s:attribute="ref">tx_ready</text><s:alias val="$_outputExt_"/><path d="M30,0 L30,20 L15,20 L0,10 L15,0 Z" fill="#169300" class="cell_tx_ready"/><g s:x="0" s:y="10" s:pid="A"/></g><g s:type="outputExt" transform="translate(237,22)" s:width="30" s:height="20" id="cell_rx_data"><text x="15" y="-4" class="nodelabel cell_rx_data" s:attribute="ref">rx_data</text><s:alias val="$_outputExt_"/><path d="M30,0 L30,20 L15,20 L0,10 L15,0 Z" fill="#169300" class="cell_rx_data"/><g s:x="0" s:y="10" s:pid="A"/></g><g s:type="outputExt" transform="translate(237,87)" s:width="30" s:height="20" id="cell_rx_valid"><text x="15" y="-4" class="nodelabel cell_rx_valid" s:attribute="ref">rx_valid</text><s:alias val="$_outputExt_"/><path d="M30,0 L30,20 L15,20 L0,10 L15,0 Z" fill="#169300" class="cell_rx_valid"/><g s:x="0" s:y="10" s:pid="A"/></g><g s:type="inputExt" transform="translate(89,217.5)" s:width="30" s:height="20" id="cell_uart_rx"><text x="15" y="-4" class="nodelabel cell_uart_rx" s:attribute="ref">uart_rx</text><s:alias val="$_inputExt_"/><path d="M0,0 L0,20 L15,20 L30,10 L15,0 Z" fill="#8bcaff" class="cell_uart_rx"/><g s:x="30" s:y="10" s:pid="Y"/></g><g s:type="outputExt" transform="translate(237,468)" s:width="30" s:height="20" id="cell_uart_tx"><text x="15" y="-4" class="nodelabel cell_uart_tx" s:attribute="ref">uart_tx</text><s:alias val="$_outputExt_"/><path d="M30,0 L30,20 L15,20 L0,10 L15,0 Z" fill="#169300" class="cell_uart_tx"/><g s:x="0" s:y="10" s:pid="A"/></g><line x1="119" x2="237" y1="162.5" y2="162.5" class="net_2 width_1" style="stroke-width: 1"/><line x1="119" x2="157" y1="162.5" y2="162.5" class="net_2 width_1" style="stroke-width: 1"/><line x1="157" x2="157" y1="162.5" y2="310.5" class="net_2 width_1" style="stroke-width: 1"/><circle cx="157" cy="162.5" r="2" style="fill:#000" class="net_2 width_1"/><line x1="157" x2="237" y1="310.5" y2="310.5" class="net_2 width_1" style="stroke-width: 1"/><line x1="119" x2="147" y1="292.5" y2="292.5" class="net_3 width_1" style="stroke-width: 1"/><line x1="147" x2="147" y1="292.5" y2="182.5" class="net_3 width_1" style="stroke-width: 1"/><circle cx="147" cy="292.5" r="2" style="fill:#000" class="net_3 width_1"/><line x1="147" x2="236" y1="182.5" y2="182.5" class="net_3 width_1" style="stroke-width: 1"/><line x1="119" x2="147" y1="292.5" y2="292.5" class="net_3 width_1" style="stroke-width: 1"/><line x1="147" x2="147" y1="292.5" y2="330.5" class="net_3 width_1" style="stroke-width: 1"/><line x1="147" x2="236" y1="330.5" y2="330.5" class="net_3 width_1" style="stroke-width: 1"/><line x1="119" x2="177" y1="32" y2="32" class="net_14,15,16,17,18,19,20,21 width_8" style="stroke-width: 2"/><line x1="177" x2="177" y1="32" y2="202.5" class="net_14,15,16,17,18,19,20,21 width_8" style="stroke-width: 2"/><circle cx="177" cy="32" r="3" style="fill:#000" class="net_14,15,16,17,18,19,20,21 width_8"/><line x1="177" x2="236" y1="202.5" y2="202.5" class="net_14,15,16,17,18,19,20,21 width_8" style="stroke-width: 2"/><line x1="119" x2="237" y1="32" y2="32" class="net_14,15,16,17,18,19,20,21 width_8" style="stroke-width: 2"/><line x1="119" x2="177" y1="227.5" y2="227.5" class="net_23 width_1" style="stroke-width: 1"/><line x1="177" x2="177" y1="227.5" y2="222.5" class="net_23 width_1" style="stroke-width: 1"/><line x1="177" x2="236" y1="222.5" y2="222.5" class="net_23 width_1" style="stroke-width: 1"/><line x1="119" x2="167" y1="97" y2="97" class="net_22 width_1" style="stroke-width: 1"/><line x1="167" x2="167" y1="97" y2="242.5" class="net_22 width_1" style="stroke-width: 1"/><circle cx="167" cy="97" r="2" style="fill:#000" class="net_22 width_1"/><line x1="167" x2="236" y1="242.5" y2="242.5" class="net_22 width_1" style="stroke-width: 1"/><line x1="119" x2="237" y1="97" y2="97" class="net_22 width_1" style="stroke-width: 1"/><line x1="42" x2="236" y1="350.5" y2="350.5" class="net_4,5,6,7,8,9,10,11 width_8" style="stroke-width: 2"/><line x1="119" x2="147" y1="478" y2="478" class="net_24 width_1" style="stroke-width: 1"/><line x1="147" x2="147" y1="478" y2="370.5" class="net_24 width_1" style="stroke-width: 1"/><circle cx="147" cy="478" r="2" style="fill:#000" class="net_24 width_1"/><line x1="147" x2="236" y1="370.5" y2="370.5" class="net_24 width_1" style="stroke-width: 1"/><line x1="119" x2="237" y1="478" y2="478" class="net_24 width_1" style="stroke-width: 1"/><line x1="119" x2="157" y1="543" y2="543" class="net_13 width_1" style="stroke-width: 1"/><line x1="157" x2="157" y1="543" y2="390.5" class="net_13 width_1" style="stroke-width: 1"/><circle cx="157" cy="543" r="2" style="fill:#000" class="net_13 width_1"/><line x1="157" x2="236" y1="390.5" y2="390.5" class="net_13 width_1" style="stroke-width: 1"/><line x1="119" x2="237" y1="543" y2="543" class="net_13 width_1" style="stroke-width: 1"/><line x1="119" x2="167" y1="598" y2="598" class="net_12 width_1" style="stroke-width: 1"/><line x1="167" x2="167" y1="598" y2="410.5" class="net_12 width_1" style="stroke-width: 1"/><line x1="167" x2="236" y1="410.5" y2="410.5" class="net_12 width_1" style="stroke-width: 1"/><rect x="112" y="345.5" width="16" height="9" class="net_4,5,6,7,8,9,10,11 width_8 busLabel_8" style="fill: white; stroke: none"/><text x="111" y="353.5" class="net_4,5,6,7,8,9,10,11 width_8 busLabel_8">/8/</text></svg>